<svg viewBox="0 0 400 440" xmlns="http://www.w3.org/2000/svg">
  <defs>
    <linearGradient id="cupGradembera" x1="0" y1="0" x2="1" y2="1">
      <stop offset="0" stop-color="#FF6B35" stop-opacity="1"/>
      <stop offset="1" stop-color="#FF6B35" stop-opacity="0.78"/>
    </linearGradient>
    <linearGradient id="bandGradembera" x1="0" y1="0" x2="0" y2="1">
      <stop offset="0" stop-color="#21181A" stop-opacity="1"/>
      <stop offset="1" stop-color="#21181A" stop-opacity="0.9"/>
    </linearGradient>
    <radialGradient id="sheenembera" cx="0.35" cy="0.3" r="0.7">
      <stop offset="0" stop-color="#ffffff" stop-opacity="0.55"/>
      <stop offset="1" stop-color="#ffffff" stop-opacity="0"/>
    </radialGradient>
    <linearGradient id="glowembera" x1="0" y1="0" x2="1" y2="0">
      <stop offset="0" stop-color="#ffffff" stop-opacity="0" />
      <stop offset="0.5" stop-color="#ffffff" stop-opacity="0.9" />
      <stop offset="1" stop-color="#ffffff" stop-opacity="0" />
    </linearGradient>
  </defs>

  <g>
    <g><animateTransform attributeName="transform" type="rotate" values="-3 200 220; 3 200 220; -3 200 220" dur="6s" repeatCount="indefinite" additive="sum" calcMode="spline" keySplines="0.45 0 0.55 1; 0.45 0 0.55 1" />
      <!-- headband -->
      <path d="M 70 190 Q 70 40 200 40 Q 330 40 330 190"
            fill="none" stroke="url(#bandGradembera)" stroke-width="26"
            stroke-linecap="round" />
      <path d="M 70 190 Q 70 40 200 40 Q 330 40 330 190"
            fill="none" stroke="#ffffff" stroke-opacity="0.08" stroke-width="6"
            stroke-linecap="round" />

      <!-- left cup -->
      <g>
        <ellipse cx="68" cy="230" rx="46" ry="62" fill="url(#cupGradembera)" />
        <ellipse cx="68" cy="230" rx="46" ry="62" fill="none" stroke="#FFC857" stroke-opacity="0.35" stroke-width="2"/>
        <ellipse cx="68" cy="230" rx="30" ry="44" fill="#1A1212" />
        <ellipse cx="55" cy="205" rx="16" ry="20" fill="url(#sheenembera)" />
      </g>

      <!-- right cup -->
      <g>
        <ellipse cx="332" cy="230" rx="46" ry="62" fill="url(#cupGradembera)" />
        <ellipse cx="332" cy="230" rx="46" ry="62" fill="none" stroke="#FFC857" stroke-opacity="0.35" stroke-width="2"/>
        <ellipse cx="332" cy="230" rx="30" ry="44" fill="#1A1212" />
        <ellipse cx="319" cy="205" rx="16" ry="20" fill="url(#sheenembera)" />
        <circle cx="332" cy="230" r="5" fill="#FFC857" opacity="0.9" />
      </g>

      <!-- yokes -->
      <path d="M 68 168 L 68 195" stroke="#21181A" stroke-width="10" stroke-linecap="round"/>
      <path d="M 332 168 L 332 195" stroke="#21181A" stroke-width="10" stroke-linecap="round"/>

      <rect x="-60" y="0" width="40" height="440" fill="url(#glowembera)" opacity="0.55" transform="skewX(-20)"><animateTransform attributeName="transform" type="translate" values="-40 0; 480 0; -40 0" dur="4.5s" repeatCount="indefinite" additive="sum" /></rect>
    </g>
  </g>
</svg>